<mxfile host="65bd71144e">
    <diagram id="fe74skqEVpON8miOBxZF" name="Page-1">
        <mxGraphModel dx="1125" dy="523" grid="1" gridSize="10" guides="1" tooltips="1" connect="1" arrows="1" fold="1" page="1" pageScale="1" pageWidth="1600" pageHeight="900" math="0" shadow="0">
            <root>
                <mxCell id="0"/>
                <mxCell id="1" parent="0"/>
                <mxCell id="2" value="" style="group;movable=1;resizable=1;rotatable=1;deletable=1;editable=1;connectable=1;" vertex="1" connectable="0" parent="1">
                    <mxGeometry x="310" y="140" width="160" height="200" as="geometry"/>
                </mxCell>
                <mxCell id="3" value="" style="group" vertex="1" connectable="0" parent="2">
                    <mxGeometry width="160" height="200" as="geometry"/>
                </mxCell>
                <mxCell id="4" value="" style="rounded=1;whiteSpace=wrap;html=1;fontSize=23;fillColor=#FF3E00;" vertex="1" parent="3">
                    <mxGeometry width="160" height="200" as="geometry"/>
                </mxCell>
                <mxCell id="5" value="" style="outlineConnect=0;dashed=0;verticalLabelPosition=bottom;verticalAlign=top;align=center;html=1;shape=mxgraph.aws3.traditional_server;fillColor=#7D7C7C;gradientColor=none;movable=1;resizable=1;rotatable=1;deletable=1;editable=1;connectable=1;" vertex="1" parent="3">
                    <mxGeometry x="40" y="70" width="80" height="113.00000000000001" as="geometry"/>
                </mxCell>
                <mxCell id="6" value="&lt;font style=&quot;font-size: 23px;&quot;&gt;Svelte Server&lt;/font&gt;" style="text;html=1;strokeColor=none;fillColor=none;align=center;verticalAlign=middle;whiteSpace=wrap;rounded=0;container=0;movable=1;resizable=1;rotatable=1;deletable=1;editable=1;connectable=1;" vertex="1" parent="3">
                    <mxGeometry x="45" y="10" width="70" height="50" as="geometry"/>
                </mxCell>
                <mxCell id="7" value="" style="group" vertex="1" connectable="0" parent="1">
                    <mxGeometry x="540" y="187" width="160" height="200" as="geometry"/>
                </mxCell>
                <mxCell id="8" value="" style="group" vertex="1" connectable="0" parent="7">
                    <mxGeometry width="160" height="200" as="geometry"/>
                </mxCell>
                <mxCell id="9" value="" style="rounded=1;whiteSpace=wrap;html=1;fillColor=#008a00;fontColor=#ffffff;strokeColor=#FFFFFF;" vertex="1" parent="8">
                    <mxGeometry width="160" height="200" as="geometry"/>
                </mxCell>
                <mxCell id="10" value="" style="shape=actor;whiteSpace=wrap;html=1;" vertex="1" parent="8">
                    <mxGeometry x="40" y="70" width="80" height="110" as="geometry"/>
                </mxCell>
                <mxCell id="11" value="&lt;font style=&quot;font-size: 23px;&quot;&gt;User&lt;br&gt;&lt;/font&gt;" style="text;html=1;strokeColor=none;fillColor=none;align=center;verticalAlign=middle;whiteSpace=wrap;rounded=0;" vertex="1" parent="8">
                    <mxGeometry x="42.66666666666663" y="20" width="74.66666666666667" height="40" as="geometry"/>
                </mxCell>
                <mxCell id="12" value="" style="group;movable=1;resizable=1;rotatable=1;deletable=1;editable=1;connectable=1;" vertex="1" connectable="0" parent="1">
                    <mxGeometry x="770" y="187" width="160" height="200" as="geometry"/>
                </mxCell>
                <mxCell id="13" value="" style="rounded=1;whiteSpace=wrap;html=1;fontSize=23;fillColor=#793BE2;" vertex="1" parent="12">
                    <mxGeometry width="160" height="200" as="geometry"/>
                </mxCell>
                <mxCell id="14" value="" style="outlineConnect=0;dashed=0;verticalLabelPosition=bottom;verticalAlign=top;align=center;html=1;shape=mxgraph.aws3.traditional_server;fillColor=#7D7C7C;gradientColor=none;" vertex="1" parent="12">
                    <mxGeometry x="37.333333333333336" y="70" width="85.33333333333333" height="113" as="geometry"/>
                </mxCell>
                <mxCell id="15" value="&lt;font style=&quot;font-size: 23px;&quot;&gt;Game Server&lt;/font&gt;" style="text;html=1;strokeColor=none;fillColor=none;align=center;verticalAlign=middle;whiteSpace=wrap;rounded=0;" vertex="1" parent="12">
                    <mxGeometry x="42.666666666666664" y="20" width="74.66666666666667" height="40" as="geometry"/>
                </mxCell>
                <mxCell id="21" style="edgeStyle=none;html=1;exitX=1;exitY=0;exitDx=0;exitDy=0;" edge="1" parent="1" source="16" target="4">
                    <mxGeometry relative="1" as="geometry"/>
                </mxCell>
                <mxCell id="16" value="" style="group;movable=1;resizable=1;rotatable=1;deletable=1;editable=1;connectable=1;" vertex="1" connectable="0" parent="1">
                    <mxGeometry x="40" y="160" width="160" height="200" as="geometry"/>
                </mxCell>
                <mxCell id="17" value="" style="group" vertex="1" connectable="0" parent="16">
                    <mxGeometry width="160" height="200" as="geometry"/>
                </mxCell>
                <mxCell id="18" value="" style="rounded=1;whiteSpace=wrap;html=1;fontSize=23;fillColor=#3333FF;" vertex="1" parent="17">
                    <mxGeometry width="160" height="200" as="geometry"/>
                </mxCell>
                <mxCell id="19" value="&lt;font style=&quot;font-size: 23px;&quot;&gt;Stores&lt;/font&gt;" style="text;html=1;strokeColor=none;fillColor=none;align=center;verticalAlign=middle;whiteSpace=wrap;rounded=0;" vertex="1" parent="17">
                    <mxGeometry x="42.666666666666664" y="20" width="74.66666666666667" height="40" as="geometry"/>
                </mxCell>
                <mxCell id="20" value="" style="strokeWidth=2;html=1;shape=mxgraph.flowchart.database;whiteSpace=wrap;fontSize=23;" vertex="1" parent="17">
                    <mxGeometry x="37.5" y="80" width="85" height="110" as="geometry"/>
                </mxCell>
            </root>
        </mxGraphModel>
    </diagram>
</mxfile>